{"title":"We.Are.Your.Friends.2015.BRRip.720p.x264.AAC-PRiSTiNE [P2PDL]","uid":12962545,"size":639136493,"categoryP":"video","categoryS":"hd___movies","magnet":"?xt=urn:btih:796e7e18afdc99f3cf5d3a52b01a05f473770206&amp;dn=We.Are.Your.Friends.2015.BRRip.720p.x264.AAC-PRiSTiNE+%5BP2PDL%5D&amp;tr=udp%3A%2F%2Ftracker.leechers-paradise.org%3A6969&amp;tr=udp%3A%2F%2Fzer0day.ch%3A1337&amp;tr=udp%3A%2F%2Fopen.demonii.com%3A1337&amp;tr=udp%3A%2F%2Ftracker.coppersurfer.tk%3A6969&amp;tr=udp%3A%2F%2Fexodus.desync.com%3A6969","seeders":0,"leechers":1,"uploader":"VYTOP2PDL","files":7,"time":1449863018,"description":"We.Are.Your.Friends.2015.BRRip.720p.x264.AAC-PRiSTiNE\r\n\r\n\r\nGenre: Drama, Music, Romance \nhttp://www.imdb.com/title/tt3787590/\r\n\r\n\r\nGeneral\r\nFormat                                   : MPEG-4\r\nFile size                                : 601 MiB\r\nDuration                                 : 1h 36mn\r\nOverall bit rate                         : 875 Kbps\r\n\r\nVideo\r\nFormat                                   : AVC\r\nBit rate                                 : 792 Kbps\r\nWidth                                    : 1 280 pixels\r\nHeight                                   : 688 pixels\r\nDisplay aspect ratio                     : 1.85:1\r\nFrame rate mode                          : Constant\r\nFrame rate                               : 24.000 fps\r\nBit depth                                : 8 bits\r\nStream size                              : 544 MiB (90%)\r\nWriting library                          : x264\r\n\r\nAudio\r\nFormat                                   : AAC\r\nBit rate mode                            : Variable\r\nBit rate                                 : 79.9 Kbps\r\nChannel(s)                               : 2 channels\r\nChannel positions                        : Front: L R\r\nSampling rate                            : 48.0 KHz\r\nStream size                              : 54.9 MiB (9%)\r\nLanguage                                 : English\r\n\r\nSubtitle                       : Yes (English)\r\n\r\nScreen Shots: (Click to view)\r\n \nhttp://ititli.com/N8 \nhttp://ititli.com/Ne \nhttp://ititli.com/Nj \nhttp://ititli.com/Nk \nhttp://ititli.com/No \nhttp://ititli.com/NG \nhttp://ititli.com/NH \nhttp://ititli.com/NM \nhttp://ititli.com/NU\r\n\r\n----------------------------------------------------------------------------------------------------\r\n\r\n\r\nEncoder Notes: Looking For Early Access To Anything You Can Provide WEBDL, DVDScr, DVDR, BluRay,\r\nDirect Audio, Music Releases and Seedboxes. If You Got anything to offer please contact us.\r\n\r\nSupport us by donating BC - 1FgwdzPsd1y25Gea8wP1qni35uGCtmkRCD\r\n\r\nSend some love!\r\nFind us and join us!","torrent":{"xt":"urn:btih:796e7e18afdc99f3cf5d3a52b01a05f473770206","amp;dn":"We.Are.Your.Friends.2015.BRRip.720p.x264.AAC-PRiSTiNE+%5BP2PDL%5D","amp;tr":["udp%3A%2F%2Ftracker.leechers-paradise.org%3A6969","udp%3A%2F%2Fzer0day.ch%3A1337","udp%3A%2F%2Fopen.demonii.com%3A1337","udp%3A%2F%2Ftracker.coppersurfer.tk%3A6969","udp%3A%2F%2Fexodus.desync.com%3A6969"],"infoHash":"796e7e18afdc99f3cf5d3a52b01a05f473770206","infoHashBuffer":{"type":"Buffer","data":[121,110,126,24,175,220,153,243,207,93,58,82,176,26,5,244,115,119,2,6]},"announce":[],"urlList":[]}}